# xmcd CD database file
#
# Track frame offsets:
#	150
#	13510
#	34347
#	50437
#	62387
#	74972
#	87516
#	98052
#	110970
#	126187
#	146252
#	158629
#	173135
#	190552
#
# Disc length: 2708 seconds
#
# Revision: 1
# Processed by: cddbd v1.5.1PL0 Copyright (c) Steve Scherf et al.
# Submitted via: CDex 1.51
#
DISCID=c00a920e
DTITLE=Honeyboy Hickling - Blowing Through Town
DYEAR=2003
DGENRE=Blues
TTITLE0=Juke
TTITLE1=Everything's Gonna Be Alright
TTITLE2=Cross Your Heart
TTITLE3=Crosby Flood
TTITLE4=I'm So Sorry
TTITLE5=Judgement Day
TTITLE6=Just Your Fool
TTITLE7=High Heeled Sneakers
TTITLE8=Mama Lunchie
TTITLE9=Never Rains It Pours
TTITLE10=Much Too Much
TTITLE11=Bright Lights Big City
TTITLE12=All My Love's In Vain
TTITLE13=Whammer Jammer
EXTD=tipos raros bluseros que vimos en zam0ra, en el bar en donde estaba una cachonda como mund0 YEAR: 2003
EXTT0=
EXTT1=
EXTT2=
EXTT3=
EXTT4=
EXTT5=
EXTT6=
EXTT7=
EXTT8=
EXTT9=
EXTT10=
EXTT11=
EXTT12=
EXTT13=
PLAYORDER=
